<mxfile host="app.diagrams.net" modified="2020-11-09T20:46:56.455Z" agent="5.0 (Windows NT 10.0; Win64; x64) AppleWebKit/537.36 (KHTML, like Gecko) Chrome/86.0.4240.111 Safari/537.36" etag="48c-XSQuIzqTA37fsJkC" version="13.9.2" type="github">
  <diagram id="3beBZVSBlBhmqdihTZP1" name="Page-1">
    <mxGraphModel dx="2062" dy="705" grid="1" gridSize="10" guides="1" tooltips="1" connect="1" arrows="1" fold="1" page="1" pageScale="1" pageWidth="1100" pageHeight="850" math="0" shadow="0">
      <root>
        <mxCell id="0" />
        <mxCell id="1" parent="0" />
        <mxCell id="uPFkqqqm6VpQ1Sv5LJzm-1" value="" style="group" parent="1" vertex="1" connectable="0">
          <mxGeometry x="120" y="100" width="890" height="560" as="geometry" />
        </mxCell>
        <mxCell id="Vqod0EoV_r2I-PZZQ01A-7" value="" style="rounded=0;whiteSpace=wrap;html=1;dashed=1;strokeColor=#0000CC;strokeWidth=3;" parent="uPFkqqqm6VpQ1Sv5LJzm-1" vertex="1">
          <mxGeometry x="380" width="510" height="560" as="geometry" />
        </mxCell>
        <mxCell id="Vqod0EoV_r2I-PZZQ01A-3" value="" style="rounded=0;whiteSpace=wrap;html=1;dashed=1;strokeWidth=3;strokeColor=#000099;" parent="uPFkqqqm6VpQ1Sv5LJzm-1" vertex="1">
          <mxGeometry width="380" height="385" as="geometry" />
        </mxCell>
        <mxCell id="2EftRhcmE9VoELaN0KJN-4" value="" style="edgeStyle=orthogonalEdgeStyle;rounded=0;orthogonalLoop=1;jettySize=auto;html=1;entryX=0;entryY=0.5;entryDx=0;entryDy=0;" parent="uPFkqqqm6VpQ1Sv5LJzm-1" source="cQQMWOdF984l5gsL9wYo-2" target="2EftRhcmE9VoELaN0KJN-2" edge="1">
          <mxGeometry relative="1" as="geometry">
            <mxPoint x="160" y="170" as="targetPoint" />
          </mxGeometry>
        </mxCell>
        <object label="" id="cQQMWOdF984l5gsL9wYo-2">
          <mxCell style="whiteSpace=wrap;html=1;arcSize=28;rounded=1;rotation=-180;" parent="uPFkqqqm6VpQ1Sv5LJzm-1" vertex="1">
            <mxGeometry x="10" y="40" width="70" height="260" as="geometry" />
          </mxCell>
        </object>
        <mxCell id="cQQMWOdF984l5gsL9wYo-5" value="&lt;b&gt;SAP&lt;/b&gt;" style="text;html=1;strokeColor=none;fillColor=none;align=center;verticalAlign=middle;whiteSpace=wrap;rotation=0;rounded=1;" parent="uPFkqqqm6VpQ1Sv5LJzm-1" vertex="1">
          <mxGeometry x="25" y="170" width="50" height="30" as="geometry" />
        </mxCell>
        <mxCell id="cQQMWOdF984l5gsL9wYo-9" value="&lt;b&gt;Application 2&lt;br&gt;(eg: ELEMOS)&amp;nbsp;&lt;/b&gt;" style="whiteSpace=wrap;html=1;rounded=1;" parent="uPFkqqqm6VpQ1Sv5LJzm-1" vertex="1">
          <mxGeometry x="690" y="220" width="160" height="200" as="geometry" />
        </mxCell>
        <mxCell id="cQQMWOdF984l5gsL9wYo-10" value="(eg: SalesForce)" style="whiteSpace=wrap;html=1;rounded=1;" parent="uPFkqqqm6VpQ1Sv5LJzm-1" vertex="1">
          <mxGeometry x="680" y="5" width="160" height="200" as="geometry" />
        </mxCell>
        <mxCell id="cQQMWOdF984l5gsL9wYo-12" value="&lt;b&gt;Application1&lt;/b&gt;" style="text;html=1;strokeColor=none;fillColor=none;align=center;verticalAlign=middle;whiteSpace=wrap;rounded=1;" parent="uPFkqqqm6VpQ1Sv5LJzm-1" vertex="1">
          <mxGeometry x="750" y="80" width="40" height="20" as="geometry" />
        </mxCell>
        <mxCell id="cQQMWOdF984l5gsL9wYo-14" value="&lt;b&gt;CPI&lt;/b&gt;" style="whiteSpace=wrap;html=1;absoluteArcSize=1;arcSize=39;strokeWidth=2;rounded=1;" parent="uPFkqqqm6VpQ1Sv5LJzm-1" vertex="1">
          <mxGeometry x="160" y="40" width="130" height="310" as="geometry" />
        </mxCell>
        <mxCell id="cQQMWOdF984l5gsL9wYo-20" value="SF JMS Queue" style="whiteSpace=wrap;html=1;rounded=1;" parent="uPFkqqqm6VpQ1Sv5LJzm-1" vertex="1">
          <mxGeometry x="350" y="67.5" width="50" height="75" as="geometry" />
        </mxCell>
        <mxCell id="1wfJWIZzBQJtpAAzH079-30" value="Event Bus (or) API&lt;br&gt;tbd" style="rounded=1;whiteSpace=wrap;html=1;absoluteArcSize=1;arcSize=14;strokeWidth=2;" parent="uPFkqqqm6VpQ1Sv5LJzm-1" vertex="1">
          <mxGeometry x="665" y="40" width="40" height="130" as="geometry" />
        </mxCell>
        <mxCell id="1wfJWIZzBQJtpAAzH079-35" style="edgeStyle=orthogonalEdgeStyle;rounded=1;orthogonalLoop=1;jettySize=auto;html=1;exitX=1;exitY=0.25;exitDx=0;exitDy=0;entryX=0;entryY=0.5;entryDx=0;entryDy=0;" parent="uPFkqqqm6VpQ1Sv5LJzm-1" source="1wfJWIZzBQJtpAAzH079-31" target="1wfJWIZzBQJtpAAzH079-30" edge="1">
          <mxGeometry relative="1" as="geometry" />
        </mxCell>
        <mxCell id="BBQ4ANnbawWz5MgYE2eR-13" style="edgeStyle=orthogonalEdgeStyle;rounded=0;orthogonalLoop=1;jettySize=auto;html=1;exitX=0.5;exitY=0;exitDx=0;exitDy=0;" parent="uPFkqqqm6VpQ1Sv5LJzm-1" source="cQQMWOdF984l5gsL9wYo-2" edge="1">
          <mxGeometry relative="1" as="geometry">
            <Array as="points">
              <mxPoint x="45" y="490" />
            </Array>
            <mxPoint x="80" y="490" as="targetPoint" />
          </mxGeometry>
        </mxCell>
        <mxCell id="1wfJWIZzBQJtpAAzH079-31" value="&lt;b&gt;CPI&lt;/b&gt;" style="rounded=1;whiteSpace=wrap;html=1;absoluteArcSize=1;arcSize=14;strokeWidth=2;" parent="uPFkqqqm6VpQ1Sv5LJzm-1" vertex="1">
          <mxGeometry x="450" y="40" width="130" height="260" as="geometry" />
        </mxCell>
        <mxCell id="1wfJWIZzBQJtpAAzH079-45" style="edgeStyle=orthogonalEdgeStyle;rounded=1;orthogonalLoop=1;jettySize=auto;html=1;exitX=1;exitY=0.5;exitDx=0;exitDy=0;entryX=0;entryY=0.25;entryDx=0;entryDy=0;" parent="uPFkqqqm6VpQ1Sv5LJzm-1" source="cQQMWOdF984l5gsL9wYo-20" target="1wfJWIZzBQJtpAAzH079-31" edge="1">
          <mxGeometry relative="1" as="geometry" />
        </mxCell>
        <mxCell id="1wfJWIZzBQJtpAAzH079-43" value="AMCS Public api&#39;S" style="rounded=1;whiteSpace=wrap;html=1;absoluteArcSize=1;arcSize=14;strokeWidth=2;" parent="uPFkqqqm6VpQ1Sv5LJzm-1" vertex="1">
          <mxGeometry x="665" y="250" width="40" height="140" as="geometry" />
        </mxCell>
        <mxCell id="1wfJWIZzBQJtpAAzH079-36" style="edgeStyle=orthogonalEdgeStyle;rounded=1;orthogonalLoop=1;jettySize=auto;html=1;exitX=0.5;exitY=1;exitDx=0;exitDy=0;entryX=0;entryY=0.5;entryDx=0;entryDy=0;" parent="uPFkqqqm6VpQ1Sv5LJzm-1" source="1wfJWIZzBQJtpAAzH079-31" target="1wfJWIZzBQJtpAAzH079-43" edge="1">
          <mxGeometry relative="1" as="geometry" />
        </mxCell>
        <mxCell id="1wfJWIZzBQJtpAAzH079-46" value="Connector 1" style="text;html=1;align=center;verticalAlign=middle;resizable=0;points=[];autosize=1;" parent="uPFkqqqm6VpQ1Sv5LJzm-1" vertex="1">
          <mxGeometry x="580" y="80" width="80" height="20" as="geometry" />
        </mxCell>
        <mxCell id="1wfJWIZzBQJtpAAzH079-47" value="Connector 2" style="text;html=1;align=center;verticalAlign=middle;resizable=0;points=[];autosize=1;" parent="uPFkqqqm6VpQ1Sv5LJzm-1" vertex="1">
          <mxGeometry x="545" y="325" width="80" height="20" as="geometry" />
        </mxCell>
        <mxCell id="1wfJWIZzBQJtpAAzH079-49" value="Proxy" style="text;html=1;align=center;verticalAlign=middle;resizable=0;points=[];autosize=1;" parent="uPFkqqqm6VpQ1Sv5LJzm-1" vertex="1">
          <mxGeometry x="90" y="140" width="50" height="20" as="geometry" />
        </mxCell>
        <mxCell id="1wfJWIZzBQJtpAAzH079-52" value="JMS" style="text;html=1;align=center;verticalAlign=middle;resizable=0;points=[];autosize=1;" parent="uPFkqqqm6VpQ1Sv5LJzm-1" vertex="1">
          <mxGeometry x="400" y="80" width="40" height="20" as="geometry" />
        </mxCell>
        <mxCell id="Vqod0EoV_r2I-PZZQ01A-4" value="PUBLISH" style="text;html=1;strokeColor=none;fillColor=none;align=center;verticalAlign=middle;whiteSpace=wrap;rounded=0;dashed=1;fontColor=#0000CC;fontStyle=1" parent="uPFkqqqm6VpQ1Sv5LJzm-1" vertex="1">
          <mxGeometry x="100" y="5" width="40" height="20" as="geometry" />
        </mxCell>
        <mxCell id="Vqod0EoV_r2I-PZZQ01A-8" value="SUBSCRIBE" style="text;html=1;strokeColor=none;fillColor=none;align=center;verticalAlign=middle;whiteSpace=wrap;rounded=0;dashed=1;fontColor=#0000CC;fontStyle=1" parent="uPFkqqqm6VpQ1Sv5LJzm-1" vertex="1">
          <mxGeometry x="470" y="5" width="40" height="20" as="geometry" />
        </mxCell>
        <mxCell id="X__tJxEk-Le90g0lmYf4-1" value="TBC" style="text;html=1;align=center;verticalAlign=middle;resizable=0;points=[];autosize=1;" parent="uPFkqqqm6VpQ1Sv5LJzm-1" vertex="1">
          <mxGeometry x="605" y="110" width="40" height="20" as="geometry" />
        </mxCell>
        <mxCell id="X__tJxEk-Le90g0lmYf4-2" value="TBC" style="text;html=1;align=center;verticalAlign=middle;resizable=0;points=[];autosize=1;" parent="uPFkqqqm6VpQ1Sv5LJzm-1" vertex="1">
          <mxGeometry x="565" y="345" width="40" height="20" as="geometry" />
        </mxCell>
        <mxCell id="2EftRhcmE9VoELaN0KJN-2" value="SAP Cloud Conne ctor" style="rounded=1;whiteSpace=wrap;html=1;absoluteArcSize=1;arcSize=14;strokeWidth=2;" parent="uPFkqqqm6VpQ1Sv5LJzm-1" vertex="1">
          <mxGeometry x="145" y="100" width="40" height="140" as="geometry" />
        </mxCell>
        <mxCell id="2EftRhcmE9VoELaN0KJN-6" value="" style="endArrow=classic;html=1;exitX=1;exitY=0.5;exitDx=0;exitDy=0;entryX=0;entryY=0.5;entryDx=0;entryDy=0;" parent="uPFkqqqm6VpQ1Sv5LJzm-1" source="cQQMWOdF984l5gsL9wYo-14" target="2EftRhcmE9VoELaN0KJN-12" edge="1">
          <mxGeometry width="50" height="50" relative="1" as="geometry">
            <mxPoint x="280" y="270" as="sourcePoint" />
            <mxPoint x="349" y="235" as="targetPoint" />
            <Array as="points" />
          </mxGeometry>
        </mxCell>
        <mxCell id="2EftRhcmE9VoELaN0KJN-9" value="JMS" style="text;html=1;align=center;verticalAlign=middle;resizable=0;points=[];autosize=1;" parent="uPFkqqqm6VpQ1Sv5LJzm-1" vertex="1">
          <mxGeometry x="300" y="157.5" width="40" height="20" as="geometry" />
        </mxCell>
        <mxCell id="2EftRhcmE9VoELaN0KJN-10" value="" style="endArrow=classic;html=1;entryX=0;entryY=0.5;entryDx=0;entryDy=0;" parent="uPFkqqqm6VpQ1Sv5LJzm-1" target="cQQMWOdF984l5gsL9wYo-20" edge="1">
          <mxGeometry width="50" height="50" relative="1" as="geometry">
            <mxPoint x="288" y="105" as="sourcePoint" />
            <mxPoint x="300" y="130" as="targetPoint" />
          </mxGeometry>
        </mxCell>
        <mxCell id="2EftRhcmE9VoELaN0KJN-11" value="JMS" style="text;html=1;align=center;verticalAlign=middle;resizable=0;points=[];autosize=1;" parent="uPFkqqqm6VpQ1Sv5LJzm-1" vertex="1">
          <mxGeometry x="300" y="70" width="40" height="20" as="geometry" />
        </mxCell>
        <mxCell id="2EftRhcmE9VoELaN0KJN-12" value="Elemos JMS Queue" style="whiteSpace=wrap;html=1;rounded=1;" parent="uPFkqqqm6VpQ1Sv5LJzm-1" vertex="1">
          <mxGeometry x="350" y="157.5" width="50" height="70" as="geometry" />
        </mxCell>
        <mxCell id="2EftRhcmE9VoELaN0KJN-7" value="" style="endArrow=classic;html=1;exitX=1;exitY=0.5;exitDx=0;exitDy=0;entryX=-0.038;entryY=0.592;entryDx=0;entryDy=0;entryPerimeter=0;" parent="uPFkqqqm6VpQ1Sv5LJzm-1" source="2EftRhcmE9VoELaN0KJN-12" target="1wfJWIZzBQJtpAAzH079-31" edge="1">
          <mxGeometry width="50" height="50" relative="1" as="geometry">
            <mxPoint x="460" y="410" as="sourcePoint" />
            <mxPoint x="450" y="228" as="targetPoint" />
            <Array as="points" />
          </mxGeometry>
        </mxCell>
        <mxCell id="2EftRhcmE9VoELaN0KJN-13" value="JMS" style="text;html=1;align=center;verticalAlign=middle;resizable=0;points=[];autosize=1;" parent="uPFkqqqm6VpQ1Sv5LJzm-1" vertex="1">
          <mxGeometry x="400" y="170" width="40" height="20" as="geometry" />
        </mxCell>
        <mxCell id="BBQ4ANnbawWz5MgYE2eR-14" value="&lt;b&gt;Oasis&lt;/b&gt;" style="whiteSpace=wrap;html=1;rounded=1;" parent="uPFkqqqm6VpQ1Sv5LJzm-1" vertex="1">
          <mxGeometry x="80" y="430" width="120" height="120" as="geometry" />
        </mxCell>
        <mxCell id="jM1_k6R8yeGZ31N2dn4X-1" value="File" style="text;html=1;align=center;verticalAlign=middle;resizable=0;points=[];autosize=1;" parent="uPFkqqqm6VpQ1Sv5LJzm-1" vertex="1">
          <mxGeometry x="50" y="350" width="30" height="20" as="geometry" />
        </mxCell>
        <mxCell id="6IWp_fXefH59K1T0-kwr-1" value="" style="ellipse;shape=cloud;whiteSpace=wrap;html=1;" vertex="1" parent="uPFkqqqm6VpQ1Sv5LJzm-1">
          <mxGeometry x="260" y="30" width="50" height="35" as="geometry" />
        </mxCell>
        <mxCell id="6IWp_fXefH59K1T0-kwr-5" value="" style="ellipse;shape=cloud;whiteSpace=wrap;html=1;" vertex="1" parent="uPFkqqqm6VpQ1Sv5LJzm-1">
          <mxGeometry x="545" y="25" width="50" height="35" as="geometry" />
        </mxCell>
        <mxCell id="6IWp_fXefH59K1T0-kwr-4" value="" style="ellipse;shape=cloud;whiteSpace=wrap;html=1;" vertex="1" parent="uPFkqqqm6VpQ1Sv5LJzm-1">
          <mxGeometry x="810" width="50" height="35" as="geometry" />
        </mxCell>
        <mxCell id="6IWp_fXefH59K1T0-kwr-3" value="" style="ellipse;shape=cloud;whiteSpace=wrap;html=1;" vertex="1" parent="uPFkqqqm6VpQ1Sv5LJzm-1">
          <mxGeometry x="810" y="215" width="50" height="35" as="geometry" />
        </mxCell>
        <mxCell id="6IWp_fXefH59K1T0-kwr-9" value="" style="shape=image;html=1;verticalAlign=top;verticalLabelPosition=bottom;labelBackgroundColor=#ffffff;imageAspect=0;aspect=fixed;image=https://cdn0.iconfinder.com/data/icons/opensourceicons/32/lookup.png" vertex="1" parent="uPFkqqqm6VpQ1Sv5LJzm-1">
          <mxGeometry x="499" y="240" width="32" height="32" as="geometry" />
        </mxCell>
        <mxCell id="6IWp_fXefH59K1T0-kwr-10" value="" style="shape=image;html=1;verticalAlign=top;verticalLabelPosition=bottom;labelBackgroundColor=#ffffff;imageAspect=0;aspect=fixed;image=https://cdn0.iconfinder.com/data/icons/opensourceicons/32/lookup.png" vertex="1" parent="uPFkqqqm6VpQ1Sv5LJzm-1">
          <mxGeometry x="29" y="260" width="32" height="32" as="geometry" />
        </mxCell>
        <mxCell id="uPFkqqqm6VpQ1Sv5LJzm-2" value="EVENT DRIVEN INTERFACE" style="text;html=1;strokeColor=none;fillColor=none;align=center;verticalAlign=middle;whiteSpace=wrap;rounded=0;dashed=1;fontColor=#0000CC;fontStyle=1" parent="1" vertex="1">
          <mxGeometry x="450" y="50" width="210" height="20" as="geometry" />
        </mxCell>
        <mxCell id="6IWp_fXefH59K1T0-kwr-6" style="edgeStyle=orthogonalEdgeStyle;rounded=0;orthogonalLoop=1;jettySize=auto;html=1;exitX=1;exitY=0.5;exitDx=0;exitDy=0;" edge="1" parent="1" source="6IWp_fXefH59K1T0-kwr-7" target="6IWp_fXefH59K1T0-kwr-8">
          <mxGeometry relative="1" as="geometry" />
        </mxCell>
        <mxCell id="6IWp_fXefH59K1T0-kwr-7" value="" style="shape=image;html=1;verticalAlign=top;verticalLabelPosition=bottom;labelBackgroundColor=#ffffff;imageAspect=0;aspect=fixed;image=https://cdn0.iconfinder.com/data/icons/opensourceicons/32/lookup.png" vertex="1" parent="1">
          <mxGeometry x="190" y="690" width="50" height="50" as="geometry" />
        </mxCell>
        <mxCell id="6IWp_fXefH59K1T0-kwr-8" value="Lookup (Old Customer to New Customer &amp;amp; vice versa)" style="text;html=1;align=center;verticalAlign=middle;resizable=0;points=[];autosize=1;" vertex="1" parent="1">
          <mxGeometry x="340" y="705" width="300" height="20" as="geometry" />
        </mxCell>
      </root>
    </mxGraphModel>
  </diagram>
</mxfile>
